<svg xmlns="http://www.w3.org/2000/svg" viewBox="0 0 35.38 31.67"><defs><style>.cls-1{fill:#fff;}</style></defs><title>資產 3</title><g id="圖層_2" data-name="圖層 2"><g id="圖層_1-2" data-name="圖層 1"><path class="cls-1" d="M29.51,2.68a.45.45,0,0,1,.4.46.38.38,0,0,1-.4.4l-2.74.06H25.34a.37.37,0,0,1-.4-.4.48.48,0,0,1,.4-.46h.74V1.93H25.8a.37.37,0,0,1-.41-.39.45.45,0,0,1,.41-.46h.28V.4a.39.39,0,0,1,.4-.4.41.41,0,0,1,.41.4v.68H28V.4a.39.39,0,0,1,.4-.4.41.41,0,0,1,.41.4V1H29a.46.46,0,0,1,.46.4.47.47,0,0,1-.4.46h-.28v.85Zm-.73,1.37a.43.43,0,0,1,.39.46V8.74a.42.42,0,0,1-.23.34.41.41,0,0,1-.4,0L28,8.68a.42.42,0,0,1-.12-.57.67.67,0,0,1,.47-.18V7.48H26.54a2.33,2.33,0,0,1-.17,1,.36.36,0,0,1-.52.22.41.41,0,0,1-.29-.51,14.92,14.92,0,0,0,.12-3.66.44.44,0,0,1,.4-.46h2.7Zm-.46,1.33V4.92H26.54a1.19,1.19,0,0,1,.06.46ZM26.6,6.63h1.72v-.4H26.6Zm.34-4.7h-.05v.81H28V1.89Zm7.89,6.18a.39.39,0,0,1,.12.57.39.39,0,0,1-.57.18,8.16,8.16,0,0,1-1.61-1.38,5.25,5.25,0,0,1-1.59,1.38.4.4,0,0,1-.58-.18.4.4,0,0,1,.18-.57,4.69,4.69,0,0,0,1.43-1.3,6.16,6.16,0,0,1-.81-2l-.34.52a.41.41,0,0,1-.57.12.36.36,0,0,1-.12-.58,7.72,7.72,0,0,0,1-3.95A.4.4,0,0,1,31.8.52a.38.38,0,0,1,.41.39c0,.53-.1,1-.18,1.55h.86c.53,0,1.07-.08,1.6-.12a.51.51,0,0,1,.46.4.45.45,0,0,1-.41.46h-.4a7.33,7.33,0,0,1-.91,3.55A6.35,6.35,0,0,0,34.83,8.11Zm-2.74-4a6.09,6.09,0,0,0,.62,1.83,8.82,8.82,0,0,0,.64-2.68h-.46l-1,.06v.06C32,3.63,32,3.87,32.09,4.11Z"/><path class="cls-1" d="M29.87,11.28a.26.26,0,0,1,.26-.12.49.49,0,0,1,.39.27,1.61,1.61,0,0,1,.05.71.6.6,0,0,0,0,.23s0,.05.08.08a9.33,9.33,0,0,0,1.06.08,8.91,8.91,0,0,1,1.38.13.47.47,0,0,1,.38.33.51.51,0,0,1,0,.3.64.64,0,0,1-.45.23,12.33,12.33,0,0,1-1.41.09l-1,0v.46a1,1,0,0,0,.12.56.56.56,0,0,0,.27.11l1.22.07a5.53,5.53,0,0,1,1.52.24,1,1,0,0,1,.26.2.44.44,0,0,1,.14.24.4.4,0,0,1-.07.19.32.32,0,0,1-.13.16,4.88,4.88,0,0,1-1.59.05,10.63,10.63,0,0,0-1.13,0,2.08,2.08,0,0,0-.66.07,3.14,3.14,0,0,0-.15,1.39,3.36,3.36,0,0,0,.15,1.42,2.49,2.49,0,0,0,.66-.34l1.13-.66c.31-.16.55-.3.74-.42.41-.27.67-.25.78.08a.35.35,0,0,1,0,.29,14.33,14.33,0,0,1-2,1.35l-1.19.78c-.22.15-.41.28-.57.37a3.41,3.41,0,0,0-.52.37c-.42.35-.72.58-.9.7a1,1,0,0,1-.52.19.49.49,0,0,1-.39-.11.54.54,0,0,1-.22-.34.26.26,0,0,1,.1-.25,3.1,3.1,0,0,1,.51-.34,6.77,6.77,0,0,0,1.18-.86l.25-.26v-.72A13.81,13.81,0,0,0,29.48,16a6.32,6.32,0,0,0-1.13-.15c-.76-.07-1.23-.12-1.4-.16a.76.76,0,0,1-.4-.23c-.12-.11-.14-.22-.07-.31a1.45,1.45,0,0,1,.5-.35.64.64,0,0,0,.33-.28,7.42,7.42,0,0,0,.1-.88,3.28,3.28,0,0,1,.22-1.3c.05-.07.14-.09.27-.05a.78.78,0,0,1,.37.25l.12.12-.07.35a4.76,4.76,0,0,0-.07.93c0,.38,0,.6.07.64a1.39,1.39,0,0,0,.83.15h.45l0-.18c0-.11,0-.58.05-1.4s0-1.16,0-1.38A.91.91,0,0,1,29.87,11.28Zm-2.14,5.27a.59.59,0,0,1,.29,0c.29.11.32.34.1.68l-.24.32a1.86,1.86,0,0,0-.17.56,3,3,0,0,1-.16.52.38.38,0,0,1-.23.2,1.13,1.13,0,0,1-.38.05c-.14,0-.23,0-.26-.06s-.09-.25,0-.49a2.17,2.17,0,0,1,.3-.73,1.6,1.6,0,0,0,.19-.36A.88.88,0,0,1,27.73,16.55Z"/><path class="cls-1" d="M33.5,30.76a.48.48,0,0,1,.47.4.44.44,0,0,1-.4.44,17.31,17.31,0,0,1-5-.27,13.54,13.54,0,0,1-2.82-1.07l-.39-.16a.48.48,0,0,1-.23-.39.46.46,0,0,1,.28-.4,5,5,0,0,0,1.26-.46l-.25-.1-.58-.33a.75.75,0,0,1-.38-.53,2,2,0,0,1,.86-1h-.23l-.9.06a.41.41,0,0,1-.39-.45.37.37,0,0,1,.39-.39,3,3,0,0,0,.84-.06h1.47a.39.39,0,0,1,.34.27.14.14,0,0,1,.06.12.43.43,0,0,1-.12.28,4.55,4.55,0,0,1-.61.56,5.47,5.47,0,0,0-.68.58l.33.16.57.33a.69.69,0,0,1,.33.51v.07a1.37,1.37,0,0,1-.9.79l-.21.05a11,11,0,0,0,2.54.84A16.5,16.5,0,0,0,33.5,30.76Zm-6.94-6.07-1-1.18a.45.45,0,0,1,0-.63.75.75,0,0,1,.62.07l1,1.17a.45.45,0,0,1,0,.61A.51.51,0,0,1,26.56,24.69Zm2.1.21a.37.37,0,0,1-.4-.38c0-.26.13-.39.4-.4a3,3,0,0,0,.79-.06v-.55a.42.42,0,0,1,.84,0v.55a2.64,2.64,0,0,0,.79-.06.51.51,0,0,1,.46.4.44.44,0,0,1-.41.45L30,24.9v.24c0,.17-.05.34-.07.5h.91a.49.49,0,0,1,.33.17.5.5,0,0,1,.12.29,11.38,11.38,0,0,1-.45,2.71.47.47,0,0,1-.28.27.51.51,0,0,1-.4,0l-.56-.46a.37.37,0,0,1-.11-.56.5.5,0,0,1,.57-.12.19.19,0,0,1,.1.12,11.31,11.31,0,0,0,.29-1.52h-.69a11.39,11.39,0,0,1-.45,1.36.41.41,0,0,1-.51.21.43.43,0,0,1-.28-.51A8.77,8.77,0,0,0,29.1,25l.06-.12Zm3.22.24a.43.43,0,0,1-.13-.56,5.4,5.4,0,0,0,.53-1l0-.29a.39.39,0,0,1,.51-.23.43.43,0,0,1,.28.52h1.25a.44.44,0,0,1,.45.37.46.46,0,0,1-.39.46H32.83a3.69,3.69,0,0,0-.33.62A.55.55,0,0,1,31.88,25.14ZM35,27a.39.39,0,0,1,.4.39c0,.28-.1.43-.4.46a4.64,4.64,0,0,0-.84,0,2.06,2.06,0,0,1-.39,1.19.36.36,0,0,1-.4.17,1.18,1.18,0,0,1-.56-.33l-.07-.07a.46.46,0,0,1,0-.62.49.49,0,0,1,.52,0,1,1,0,0,0,.06-.34h-1a.42.42,0,0,1-.46-.38.38.38,0,0,1,.39-.41l.9,0a.17.17,0,0,1,0-.12.38.38,0,0,1-.11-.23.66.66,0,0,1,.11-.28,1.54,1.54,0,0,1,.23-.39h-.58a.44.44,0,0,1-.39-.44.4.4,0,0,1,.39-.41h.75a1.7,1.7,0,0,1,.51-.05.39.39,0,0,1,.33.27.34.34,0,0,1,0,.4h0a1.92,1.92,0,0,0-.23.45,1.86,1.86,0,0,0-.21.39,1.32,1.32,0,0,1,.21.41A4.44,4.44,0,0,0,35,27Z"/><path class="cls-1" d="M21.7,7.65a.61.61,0,0,1-.09.78.5.5,0,0,1-.74,0,11.51,11.51,0,0,1-1-1.29q-3.48.09-6.93.07a.53.53,0,0,1-.53-.3,1.37,1.37,0,0,1,.08-.53,31.46,31.46,0,0,0,2.4-4.28.7.7,0,0,1,.76-.23.47.47,0,0,1,.3.46.45.45,0,0,1-.07.3A38.35,38.35,0,0,1,14,6.15c1.71,0,3.42,0,5.13-.07-.24-.42-.47-.84-.68-1.28a.51.51,0,0,1,.23-.75.59.59,0,0,1,.74.22A12.93,12.93,0,0,0,21.7,7.65ZM19.14,8.87c.34,0,.51.18.52.53a14.63,14.63,0,0,1-.15,3.44v.09a.48.48,0,0,1-.45.37H19l-4.6.08h-.23a.63.63,0,0,1-.45-.54,23.69,23.69,0,0,1,0-3.37.54.54,0,0,1,.6-.53h.16c.79-.06,1.59-.08,2.4-.07ZM16.87,10H14.76v2.24h3.7a9.59,9.59,0,0,0,.14-1.94V10Z"/><path class="cls-1" d="M14.94,23.28a.52.52,0,0,1,.65.09.63.63,0,0,1,0,.87,16,16,0,0,1-3.83,2.21.54.54,0,0,1-.8-.23.63.63,0,0,1,.24-.8c.86-.4,1.71-.82,2.54-1.25v-4.3H12.4L11.29,20a.54.54,0,0,1-.56-.56.57.57,0,0,1,.47-.64h1.12a6.15,6.15,0,0,0,1.42-.07V17.09a.57.57,0,0,1,.56-.57.64.64,0,0,1,.64.57Zm7.88.17a20.33,20.33,0,0,1,.08,2,.81.81,0,0,1-.57.58h-.47c-.47.05-.93.1-1.39.13a8.37,8.37,0,0,1-1.41,0A1.33,1.33,0,0,1,18,25.42a7,7,0,0,1-.21-1.83c0-1.45,0-2.91,0-4.35V17.09a.63.63,0,0,1,.63-.57.57.57,0,0,1,.56.57v1.83a17,17,0,0,0,2.45-.55.57.57,0,1,1,.33,1.1,18.78,18.78,0,0,1-2.78.57v.87c0,1.35,0,2.7.08,4a8.16,8.16,0,0,0,2.7,0V23.54a.7.7,0,0,1,.47-.65A.64.64,0,0,1,22.82,23.45Z"/><path class="cls-1" d="M5,21.37l-.09-.06S.6,17.53.62,14A3.85,3.85,0,0,1,2.1,11a3.59,3.59,0,0,1,5.3.31,3.59,3.59,0,0,1,.73,1.38h0c.6,2.18-.64,4.94-1.2,6a14.6,14.6,0,0,1-1.88,2.64Zm-.51-11a3.68,3.68,0,0,0-2.11.93A3.51,3.51,0,0,0,1,14c0,3,3.36,6.32,4,6.93.36-.41,1.49-2.2,1.59-2.38.54-1.05,1.74-3.71,1.17-5.76h0a3.21,3.21,0,0,0-.65-1.24A3.2,3.2,0,0,0,4.45,10.35Zm.17,5.89a2.14,2.14,0,1,1,2-2.3A2.14,2.14,0,0,1,4.62,16.24Zm-.29-3.9A1.77,1.77,0,1,0,6.23,14,1.76,1.76,0,0,0,4.33,12.34Z"/><path class="cls-1" d="M9.36,22.72c-.19,0-.43-.09-.6-.48a4.43,4.43,0,0,1-.24-1.36c-.2.32-.43.65-.58.84l-.16.22-.14-.23a2.05,2.05,0,0,1-.35-.9,2.54,2.54,0,0,0-.93,1l-.24.54L6,21.8A4.53,4.53,0,0,1,6,20.55a4.23,4.23,0,0,0-1.49,1.6l-.15.26-.7-1.06L3.13,22l-.65-1-.29,1.13L2,21.79l-1-1.1a18.33,18.33,0,0,1,.32,1.95l-.37,0A11.65,11.65,0,0,0,.39,20c-.47-.58-.42-.63-.33-.72s.28,0,.34.05a1.3,1.3,0,0,1,.3.44c.31.38.81,1,1.3,1.52L2.34,20l.82,1.32.47-.6.66,1c.32-.49,1.08-1.53,1.89-1.6l.28,0-.09.27a2.21,2.21,0,0,0-.06.86,2.28,2.28,0,0,1,1.17-.89l.5-.15-.3.43c-.08.12,0,.41.13.66a6.84,6.84,0,0,0,.73-1.2.68.68,0,0,1,.06-.2l.21,0,.11.19a.45.45,0,0,1,0,.11,4.27,4.27,0,0,0,.29,2.13.2.2,0,0,0,.16.09v.37Z"/></g></g></svg>