<svg xmlns="http://www.w3.org/2000/svg" viewBox="0 0 33.35 44.77"><defs><style>.cls-1{fill:#fff;}</style></defs><title>bannerLink04</title><g id="圖層_2" data-name="圖層 2"><g id="圖層_1-2" data-name="圖層 1"><path class="cls-1" d="M19.3,17.05a.54.54,0,0,1,.4.7,9.52,9.52,0,0,1-.63,2,.68.68,0,0,1-.82.31.81.81,0,0,1-.24-.82c.21-.54.4-1.11.57-1.69A.6.6,0,0,1,19.3,17.05Zm1.53-3.57a.62.62,0,0,1,.65.57V25a.67.67,0,0,1-.65.62.59.59,0,0,1-.56-.62v-11A.53.53,0,0,1,20.83,13.48Zm2.44,4,.49,1.7a.62.62,0,0,1-.4.75.52.52,0,0,1-.72-.42l-.51-1.72a.59.59,0,0,1,1.14-.31Zm9.5-.26a.52.52,0,0,1,.58.53.56.56,0,0,1-.5.55H28.54l-3.14.07a.55.55,0,0,1-.59-.58.56.56,0,0,1,.5-.57h3.17v-.63H26.67a.53.53,0,0,1-.48-.51.49.49,0,0,1,.48-.54h1.81v-.58H26.13a.55.55,0,0,1-.6-.48.56.56,0,0,1,.6-.55h2.35v-.41a.57.57,0,0,1,.55-.6.59.59,0,0,1,.56.6v.41L32,13.81a.54.54,0,0,1,.56.54.67.67,0,0,1-.56.57H29.59v.58q.91-.09,1.77-.09A.6.6,0,0,1,32,16a.5.5,0,0,1-.5.44,8.86,8.86,0,0,1-1.86.1v.63Zm-1.21,1.9a.52.52,0,0,1,.55.55V25a.75.75,0,0,1-.22.54.7.7,0,0,1-.66,0l-.81-.46a.54.54,0,0,1-.25-.8.56.56,0,0,1,.74-.24v-.59h-3a6.28,6.28,0,0,1-.23,1.32.72.72,0,0,1-.81.31.66.66,0,0,1-.33-.8,17.36,17.36,0,0,0,.25-4.68c-.05-.37.14-.55.57-.55h4.22Zm-.65,1.69V20.2H28v.57ZM28,22.39h2.92v-.56H28Z"/><path class="cls-1" d="M23.5,36.15a15.55,15.55,0,0,1-2.61.1,1.52,1.52,0,0,1-1-.12c-.17-.12-.17-.35,0-.67a.83.83,0,0,0,.14-.53c0-.11-.17-.2-.41-.27-.51-.13-.77-.29-.77-.48a.31.31,0,0,1,.12-.24.76.76,0,0,1,.25-.16,8.77,8.77,0,0,1,1.22,0,4.53,4.53,0,0,0,1.29-.1c0-.18-.25-.27-.86-.27a3.57,3.57,0,0,1-1.42-.21.8.8,0,0,1-.17-.21.48.48,0,0,1-.1-.27c0-.06,0-.14.15-.25l.14-.13,0-.86a6.68,6.68,0,0,1,.15-1.56c.09-.14.36-.23.8-.28l.39-.07a1.43,1.43,0,0,1,.46,0c.15,0,.23-.05.25-.15v-.18l0-.11a4.78,4.78,0,0,0-1.11-.1,1.54,1.54,0,0,1-.94-.21.51.51,0,0,1-.21-.36q0-.35.15-.39a8.21,8.21,0,0,1,1.17-.09,3,3,0,0,0,.7-.1c.08,0,.15-.13.22-.28a.57.57,0,0,1,.17-.33c.09-.09.26-.1.5,0a.43.43,0,0,1,.34.42c0,.16.08.25.17.28a2.59,2.59,0,0,0,.66.05,2.63,2.63,0,0,1,.86.09.46.46,0,0,1,.27.37.49.49,0,0,1-.19.52,1.83,1.83,0,0,1-.88.11,3.91,3.91,0,0,0-.85.05c-.07,0-.12.13-.13.3a.25.25,0,0,0,.21.21,6,6,0,0,0,.84,0,5,5,0,0,1,.83.08.47.47,0,0,1,.26.26.93.93,0,0,1,.06.63,2.61,2.61,0,0,0-.07,1.14,1,1,0,0,1,0,.49.74.74,0,0,0,0,.22.5.5,0,0,0,.1.13.33.33,0,0,1,.11.27.38.38,0,0,1-.15.28,1.71,1.71,0,0,1-1.13.22c-.63,0-1,.06-1,.15s0,.18,0,.21a1.6,1.6,0,0,0,.62.1,3.75,3.75,0,0,0,.92-.08,1.06,1.06,0,0,1,.46,0,.88.88,0,0,1,.38.24.47.47,0,0,1,.15.32.45.45,0,0,1-.16.31.59.59,0,0,1-.39.18.31.31,0,0,0-.29.33.51.51,0,0,0,.1.3.45.45,0,0,1,.11.27c0,.07-.06.16-.19.29A2,2,0,0,1,23.5,36.15Zm-2.24-5.59-.42,0a.34.34,0,0,0-.3,0,.24.24,0,0,0-.12.21.35.35,0,0,0,0,.12.5.5,0,0,0,.16.07A3.08,3.08,0,0,0,21,31l.46,0c.18-.05.22-.14.13-.27S21.45,30.57,21.26,30.56ZM21.37,32l-.47,0a1.09,1.09,0,0,0-.45,0s0,.07,0,.17a.38.38,0,0,0,.1.22,1.94,1.94,0,0,0,.38.06,2,2,0,0,0,.48,0c.12,0,.18-.06.18-.11A.38.38,0,0,0,21.37,32Zm0,2.88a.19.19,0,0,0-.22-.07.74.74,0,0,0-.28.14c-.19.18-.23.32-.13.41a.83.83,0,0,0,.38.05c.2,0,.31,0,.34-.05a.32.32,0,0,0,0-.23A.45.45,0,0,0,21.39,34.89Zm2,5.33c.34-.07.52.08.52.44a.31.31,0,0,1-.05.19.87.87,0,0,1-.3.15,3.37,3.37,0,0,0-.59.29,2.23,2.23,0,0,1-.91.42c-.21,0-.32-.15-.32-.44a.56.56,0,0,1,.06-.3.79.79,0,0,1,.26-.2,7.27,7.27,0,0,0,.73-.29A5.4,5.4,0,0,1,23.37,40.22Zm1.19-4.41a.53.53,0,0,1,.27-.2.94.94,0,0,1,.36-.09.75.75,0,0,1,.3.08,1,1,0,0,1,.22.13c.05.13-.09.4-.43.83a2.37,2.37,0,0,0-.46.7c.07.09.14.14.21.13a.44.44,0,0,0,.23-.11c.09-.06.24-.16.45-.28a2.33,2.33,0,0,1,.33-.25l.38-.19.21-.06.23.09c.16.17.23.3.19.39a2,2,0,0,1-.5.48c-.27.2-.54.4-.82.59s-.47.3-.66.44-.28.24-.28.29,0,.06,0,.06h.42l1-.1.44-.13a1.61,1.61,0,0,0,.48-.31c.31-.26.56-.33.74-.23a3.42,3.42,0,0,1,.84,1,1.19,1.19,0,0,1,.24.61,1,1,0,0,1-.36.61.59.59,0,0,1-.65-.17l-.27-.23h-.75c-.52,0-.81,0-.86.1s-.13.47,0,1.09c.08.47.07.75,0,.84s-.27.1-.67.1a2,2,0,0,1-.67-.09c-.08,0-.11-.17-.11-.39s0-.34.11-.4a1.39,1.39,0,0,0,.23-.75l0-.4h-.86a6.87,6.87,0,0,1-1.35-.09c-.27-.06-.42-.17-.47-.34a.31.31,0,0,1,0-.32,1.62,1.62,0,0,1,.4-.4,1.59,1.59,0,0,1,.52-.31,2,2,0,0,0,.47-.29l.26-.21-.28-.29a1.46,1.46,0,0,1-.26-.29.5.5,0,0,1,0-.19,2.09,2.09,0,0,1,.75-1C24.29,36.13,24.44,36,24.56,35.81Zm-1.21-5.14a1.58,1.58,0,0,0-.63,0c-.23-.05-.35,0-.35.1s.13.24.34.26a1.68,1.68,0,0,0,.56,0C23.46,30.93,23.49,30.84,23.35,30.67ZM23.08,32h-.56c-.05,0-.08,0-.1.13a.36.36,0,0,0,0,.25.13.13,0,0,0,.09.07,1,1,0,0,0,.29,0c.37,0,.57-.06.6-.19a.27.27,0,0,0,0-.17C23.36,32,23.26,32,23.08,32Zm-.19,2.9c-.22-.09-.35-.1-.39,0a.32.32,0,0,0,0,.38.27.27,0,0,0,.14.13,1.23,1.23,0,0,0,.28,0c.17,0,.25-.06.25-.12s0-.09-.08-.16A.78.78,0,0,0,22.89,34.87Zm2.91-6.94a.6.6,0,0,1,.33,0c.18,0,.67.05,1.49.08.62,0,1,0,1.12,0a1,1,0,0,1,.38.11.77.77,0,0,1,.32.29,1.83,1.83,0,0,1,.1.65l0,.54.46,0a2.16,2.16,0,0,1,.65.09.58.58,0,0,1,.35.51.55.55,0,0,1-.35.51,1.74,1.74,0,0,1-.67.09,2.71,2.71,0,0,1-.75-.11,2.51,2.51,0,0,1-1-1,1.63,1.63,0,0,0-.37-.45,2.48,2.48,0,0,0-.72-.1c-.4,0-.62,0-.68.09s0,.3.07.66a1.18,1.18,0,0,1,0,.86.47.47,0,0,1-.52.17.43.43,0,0,1-.36-.22,3.78,3.78,0,0,1-.16-.83,4.19,4.19,0,0,0-.11-.85,2.86,2.86,0,0,1-.06-.46.72.72,0,0,1,.13-.35A.62.62,0,0,1,25.8,27.93Zm2.86,3.39a.75.75,0,0,1,.32,0,1.36,1.36,0,0,1,.46.13c.35.15.5.38.44.68a3.15,3.15,0,0,1-.72,1.25,2.56,2.56,0,0,0-.46.62s.07.13.21.26a1.65,1.65,0,0,0,.42.27.72.72,0,0,1,.22.11.4.4,0,0,1,.07.16.59.59,0,0,1-.14.58.6.6,0,0,1-.29.14.52.52,0,0,1-.3,0,1.87,1.87,0,0,1-.5-.33L28.06,35l-.26.22a1.79,1.79,0,0,0-.35.47A.61.61,0,0,1,27,36a.6.6,0,0,1-.52-.1c-.17-.11-.17-.32,0-.66a1.14,1.14,0,0,1,.56-.63c.16-.07.25-.14.25-.19a4.37,4.37,0,0,0-.67-.73,6.59,6.59,0,0,1-.88-1.07.61.61,0,0,1,0-.65.83.83,0,0,1,.5-.28,11.8,11.8,0,0,1,1.44-.2A5.12,5.12,0,0,0,28.66,31.32Zm-1.75,9a1.1,1.1,0,0,1,.64.13A7,7,0,0,0,29,41a2.08,2.08,0,0,1,.53.18,1,1,0,0,1,.37.24.34.34,0,0,1,0,.3l-.25.16-.34,0a5.53,5.53,0,0,1-1.55-.21,3.91,3.91,0,0,1-.87-.44c-.23-.16-.34-.31-.34-.45a.42.42,0,0,1,.1-.25A.36.36,0,0,1,26.91,40.35Zm1.38-7.8s-.09,0-.26,0a2,2,0,0,0-.5,0c-.27,0-.41.1-.41.17s.11.23.31.42.34.28.4.25.13-.14.26-.38A1.4,1.4,0,0,0,28.29,32.55Z"/><path class="cls-1" d="M5,9.59a.56.56,0,0,1,.13.45,56.19,56.19,0,0,1-.06,6.09v.23H5v.07H4.93v.08H4.87v.07H4.63v.08H3.22c-.48,0-1,0-1.41.07a.6.6,0,0,1-.39-.15.47.47,0,0,1-.21-.45V10.19a.54.54,0,0,1,.37-.52.56.56,0,0,0,.15-.08L3.3,9.52H4.56A.49.49,0,0,1,5,9.59Zm-1.71,1h-1v2H4.11v-2Zm-.15,4.92H4c0-.62.06-1.24.08-1.86H3.22l-1,.07v1.86A3.91,3.91,0,0,0,3.15,15.55Zm8.09-6.62a.42.42,0,0,1,.24.36v9.14a.58.58,0,0,1-.39.51.41.41,0,0,1-.52-.08l-.89-.66a.65.65,0,0,1-.06-.81.52.52,0,0,1,.72-.07V15.46H7.22A10.49,10.49,0,0,1,7,17.84a.6.6,0,0,1-.67.36A.52.52,0,0,1,6,17.53a23.13,23.13,0,0,0,.24-3.92q0-2.14-.09-4.32a.56.56,0,0,1,.59-.51h4.17A.34.34,0,0,1,11.24,8.93Zm-.9,2.67V9.82H7.22a17.53,17.53,0,0,1,.09,1.78Zm-3,2.75h3V12.71h-3Z"/><path class="cls-1" d="M3.55,20.8a.52.52,0,0,1,.37.67,14.53,14.53,0,0,1-1,2.9.25.25,0,0,1-.07.22.3.3,0,0,1,.07.24c0,1.17,0,2.33.08,3.5v3.33a.54.54,0,0,1-.53.55A.52.52,0,0,1,2,31.66c0-1.1-.06-2.21-.08-3.33l-.08-2.08-1,1a.67.67,0,0,1-.82-.08,1.16,1.16,0,0,1,.06-.82A7.72,7.72,0,0,0,2,23.92a17.42,17.42,0,0,0,.89-2.76A.64.64,0,0,1,3.55,20.8Zm7,2.39a.5.5,0,0,1,.6.51.52.52,0,0,1-.53.53c-1.67.08-3.33.13-5,.14a.59.59,0,0,1-.53-.6.54.54,0,0,1,.6-.51C7.34,23.28,9,23.25,10.58,23.19Zm-.37,5.66a.53.53,0,0,1,.53.53,14.5,14.5,0,0,1-.09,2.28h-.07v.09a.48.48,0,0,1-.51.37H6.26a.51.51,0,0,1-.46-.53V29.44a.52.52,0,0,1,.53-.51.16.16,0,0,1,.15-.08h3.73ZM6.4,28.11a.63.63,0,0,1-.52-.6.53.53,0,0,1,.6-.53,25.55,25.55,0,0,0,3.5-.15.61.61,0,0,1,.6.53.55.55,0,0,1-.51.58C8.85,28,7.63,28.1,6.4,28.11Zm.08-1.86A.6.6,0,0,1,6,25.63a.51.51,0,0,1,.53-.51c1.19,0,2.38,0,3.59-.07a.51.51,0,0,1,.58.43c0,.38-.17.58-.53.6C8.9,26.18,7.69,26.24,6.48,26.25Zm.6-4.49A.55.55,0,0,1,6.92,21a.69.69,0,0,1,.76-.22l1.4.89a.49.49,0,0,1,.22.73.54.54,0,0,1-.73.16ZM8.41,30H6.86v1.11L9.61,31a7.51,7.51,0,0,0,.08-1Z"/><path class="cls-1" d="M13.33,36.67a.56.56,0,0,1,.57.53.59.59,0,0,1-.54.58l-2.94,0c-.72,0-1.45,0-2.17,0A.3.3,0,0,1,8,37.8a13.65,13.65,0,0,1,0,1.57h.07l1.95,0c.84,0,1.7,0,2.55-.06a.58.58,0,0,1,.58.52l0,.17V44.2a.55.55,0,0,1-.55.57A.56.56,0,0,1,12,44.2V40.42c-.67,0-1.33,0-2,0l-1.91.06a.37.37,0,0,1-.21-.06,9.76,9.76,0,0,1-1.37,3.66.54.54,0,0,1-.47.29.58.58,0,0,1-.31-.08.61.61,0,0,1-.18-.79,8.13,8.13,0,0,0,1.23-3.36,17.67,17.67,0,0,0,.1-3.63c0-.67-.06-1.34,0-2a.57.57,0,0,1,1.13,0c0,.66,0,1.31,0,2a1,1,0,0,0,0,.35.36.36,0,0,1,.22-.07l2.19,0h.06V34.64a.54.54,0,0,1,.56-.55.56.56,0,0,1,.55.55v2.08l1.71,0Z"/><path class="cls-1" d="M16.57,10.73H16.4a2.8,2.8,0,0,1-2.22-1c-1.42-1.64-1-4.76-1-4.89s.37-3.08,2.33-4.33A4,4,0,0,1,19.11.29a6.27,6.27,0,0,1,3.62,3.33,6.46,6.46,0,0,1,0,4.49l.87,2.42L20.5,9.62C20.33,10,19.59,10.73,16.57,10.73ZM17.45.3A3.16,3.16,0,0,0,15.7.79C13.86,2,13.5,4.88,13.5,4.91s-.42,3.12.9,4.66a2.55,2.55,0,0,0,2,.87c3.61,0,3.86-1,3.86-1l0-.16.15,0,2.65.78-.71-2,0,0a6.21,6.21,0,0,0,0-4.32A5.94,5.94,0,0,0,19,.57,5.07,5.07,0,0,0,17.45.3Z"/><path class="cls-1" d="M15.81,6.88a.39.39,0,0,1-.4-.38l-.12-2.69a.41.41,0,0,1,.39-.42l3.9-.16a.39.39,0,0,1,.41.38l.12,2.69a.44.44,0,0,1-.11.29.41.41,0,0,1-.28.13l-3.9.16Zm3.78-3.35h0l-3.9.16a.1.1,0,0,0-.1.11l.11,2.68a.1.1,0,0,0,.11.1l3.9-.16a.09.09,0,0,0,.07,0,.11.11,0,0,0,0-.08L19.7,3.63A.11.11,0,0,0,19.59,3.53Z"/><polygon class="cls-1" points="17.89 5.52 15.36 3.93 15.52 3.68 17.85 5.14 19.68 3.36 19.89 3.57 17.89 5.52"/></g></g></svg>