<svg xmlns="http://www.w3.org/2000/svg" viewBox="0 0 74.74 72.92">
<g id="line1">
<g id="line2">
<path class="cls-1" style="fill:none;stroke:#1e1e1e;stroke-width:2px;" d="M31.42,1.58a5.37,5.37,0,0,1,3-.56A7.19,7.19,0,0,1,38.29,2.2a3.58,3.58,0,0,1,1,2.84A3.76,3.76,0,0,1,38.15,8.1Q37,9.06,33,9.9a25.17,25.17,0,0,0-6.38,2.5,52.9,52.9,0,0,0-5.69,3.74c-2.13,1.57-3.14,2.5-3.05,2.77s1.78.28,4.78.28,6-.09,9.09-.28q3.6-.27,15.67-1.8t12.76-1.94c.37-.09.56-.21.56-.35A12.3,12.3,0,0,0,60,13c-1-2.5-.78-4.16.7-5a5,5,0,0,1,4.57,0q1.8,1,5.83,9.84A47.52,47.52,0,0,1,73.58,24a4.55,4.55,0,0,1-.27,3.12Q72.2,30,69.7,30,67.9,30,65,27.24a8.94,8.94,0,0,0-3.47-2.36q-2.22-.42-14.7,1.52-5.41.84-15.81,1.39-8.75.42-13.74.83-10.68,1-13.87-.14a4.16,4.16,0,0,1-2.21-2.56,3.76,3.76,0,0,1,.55-3.4,16.13,16.13,0,0,1,3.75-3.95A27.74,27.74,0,0,1,10.62,15a68.94,68.94,0,0,0,7.21-5.27c3.33-2.59,5.52-4.23,6.59-4.92A21,21,0,0,1,28.09,3,24.7,24.7,0,0,0,31.42,1.58ZM11.87,40.83c1.1-.56,3.28-.42,6.51.41a38.49,38.49,0,0,0,5.34.49q2.85.08,17.55-.21,19.56-.42,20.94,0a3.12,3.12,0,0,1,2,2,26.66,26.66,0,0,1,1,6.31q.28,4.17.21,10.06T65,66.76a4.62,4.62,0,0,1-3.33,2.78q-1.11.27-7.08.83c-2.12.19-5.59.55-10.4,1.11a187.83,187.83,0,0,1-19,.42q-14.28-.14-15.26-.7c-.64-.46-1.08-1.52-1.31-3.19S8.17,62.74,8,57.19l-.28-9.7,1-1.53a22,22,0,0,0,1.66-3.19A3.8,3.8,0,0,1,11.87,40.83ZM55,51.79q-.69-.28-12.14-.42t-14.77.14q-7.62.56-10.68,1.94a3.11,3.11,0,0,0-1.25,1.11,20.29,20.29,0,0,0-.83,3.33,19.77,19.77,0,0,0-.55,4.16q1.24,1.11,15.39.83,18-.69,23.16-1.66A3.45,3.45,0,0,0,55.48,60,7.84,7.84,0,0,0,56,56.5C56,53.64,55.65,52.06,55,51.79Z"/>
</g>
</g>
</svg>