<svg xmlns="http://www.w3.org/2000/svg" viewBox="0 0 490.17 304.87"><defs><style>.cls-1{fill:#a5361c;}.cls-2{fill:#fff;}.cls-3{fill:none;stroke:#1e1e1e;stroke-miterlimit:10;stroke-width:5px;}.cls-4{fill:#1e1e1e;}</style></defs><title>資產 1</title><g id="圖層_2" data-name="圖層 2"><g id="圖層_1-2" data-name="圖層 1"><path class="cls-1" d="M257.26,39.81a10.72,10.72,0,0,0-1.92-4.41c-4.18-5.63-10.67-6.23-16.28-2.16-15,10.89,6.6,33.2,6.61,33.21.38.39,6.06-7.34,6.34-7.81C255.06,53.68,258.5,46.06,257.26,39.81Z"/><circle class="cls-2" cx="245.89" cy="44.35" r="6.83"/><polyline class="cls-3" points="375.12 77.66 245.61 2.89 116.09 77.66 116.09 119.34"/><polyline class="cls-3" points="116.09 227.21 245.61 301.98 375.12 227.21 375.12 182.4"/><path class="cls-1" d="M486.48,78.07a43.17,43.17,0,0,1-16.66-9.44l-.17-.14c-11.93-9-26.49-10.69-39.95-4.75l-.24.12c-6.18,3.56-11.31,8.91-16.27,14.09s-9.53,10-15.06,13.14l-.23.15c-8.42,6.13-18.75,7-27,2.21l-2.33,5.92c9.94,5.77,21.88,4.86,31.95-2.42,6.13-3.56,11.23-8.88,16.15-14s9.47-9.88,15-13.07A34.28,34.28,0,0,1,466.72,74,47.53,47.53,0,0,0,487,85Q486.76,81.5,486.48,78.07Z"/><path class="cls-1" d="M488,98.76c-.91-.36-1.82-.77-2.71-1.22-3.24-1.81-6.47-3.88-9.59-5.88-10.61-6.8-21.58-13.83-34.91-11.85l-.16,0c-11.36,2.56-19.6,11.54-27.56,20.23a120.26,120.26,0,0,1-12.49,12.36c-8.5,6.17-18.66,6.87-26.51,1.84l-2.52,5.81c9.53,6.1,21.74,5.32,31.86-2l.1-.08a124.14,124.14,0,0,0,13.16-13c7.73-8.43,15-16.39,24.86-18.65,11.61-1.69,21.35,4.55,31.65,11.16,3.19,2,6.48,4.15,9.94,6.08a37.41,37.41,0,0,0,5.29,2.19C488.3,103.41,488.17,101.08,488,98.76Z"/><path class="cls-1" d="M489.1,118.11a97.4,97.4,0,0,1-14.32-7.54c-11.31-6.76-23-13.75-37-8.13-9.42,3.77-17,11.44-24.27,18.86-1.59,1.62-3.17,3.22-4.76,4.78-10.09,9.86-22.1,13.08-32.12,8.61l-1.87,6.16c11.82,5.28,25.8,1.67,37.38-9.66,1.62-1.58,3.22-3.21,4.84-4.85,6.91-7,14.06-14.29,22.49-17.67,11.95-4.78,22.16,1.32,33,7.79,5.47,3.27,11.06,6.6,17,8.59C489.31,122.74,489.21,120.42,489.1,118.11Z"/><path class="cls-1" d="M490,139.68c-.91-.27-1.83-.56-2.73-.91-2.87-1.08-5.4-3.19-8.07-5.41a52.65,52.65,0,0,0-6-4.53c-12.31-7.62-25.65-9.24-36.59-4.44-7.79,3.42-14.58,10-21.15,16.39-11.15,10.82-21.68,21-36.09,15.41l-1.65,6.25c17.17,6.71,29.34-5.11,41.11-16.53,6.23-6,12.66-12.29,19.61-15.34,9.54-4.19,21.32-2.69,32.31,4.11a49.2,49.2,0,0,1,5.4,4.09c2.88,2.41,5.86,4.89,9.51,6.27a41.93,41.93,0,0,0,4.55,1.42Q490.08,143.07,490,139.68Z"/><path class="cls-1" d="M110.16,139.18C95.8,155.94,73.74,157,56.5,141.63l-.18-.14c-11.94-9-26.52-10.69-40-4.75l-.24.12C10,140.38,4.9,145.63,0,150.74c.08,2.8.14,5.6.21,8.41,1.05-1.07,2.09-2.15,3.11-3.22,4.88-5.08,9.49-9.88,15-13.07A34.36,34.36,0,0,1,53.39,147c10.8,9.55,23.3,13.39,35.06,11.64,9.36-1.4,18.26-6.33,25.46-14.74Z"/><path class="cls-1" d="M111.85,159.52c-10,13.64-26.06,18-39.85,11-3.24-1.81-6.47-3.88-9.6-5.88-10.62-6.8-21.61-13.83-34.95-11.85l-.16,0c-10.92,2.46-19,10.85-26.65,19.21.13,2.75.29,5.51.5,8.26L3.3,178c7.75-8.43,15.06-16.39,24.89-18.65,11.63-1.69,21.37,4.55,31.69,11.16,3.19,2,6.49,4.15,9.95,6.08A34.1,34.1,0,0,0,90.5,180c9.58-1.43,18.66-7,25.39-16.15Z"/><path class="cls-1" d="M115.37,176.41c-6.46,10.13-16.83,16.44-27.76,16.88-9.25.37-17.46-4.53-26.15-9.72-11.33-6.76-23-13.75-37.09-8.13-8.53,3.41-15.53,10-22.19,16.73.25,2.58.52,5.16.79,7.74l.57-.57c6.92-7,14.07-14.29,22.52-17.67,12-4.78,22.19,1.32,33,7.79,8.91,5.32,18.12,10.82,28.72,10.39a36.49,36.49,0,0,0,3.76-.35c11.1-1.66,21.41-8.59,28.09-19.07Z"/><path class="cls-1" d="M117,197.54a35.89,35.89,0,0,1-28.68,16.55,36.35,36.35,0,0,1-14.4-2.32c-2.88-1.08-5.4-3.19-8.08-5.41a52.65,52.65,0,0,0-6-4.53c-12.33-7.62-25.69-9.24-36.64-4.44-6.92,3-13.06,8.58-18.95,14.24.28,2.54.54,5.08.8,7.62l.36-.34c6.23-6,12.67-12.29,19.63-15.34,9.55-4.19,21.34-2.69,32.34,4.11a50.26,50.26,0,0,1,5.41,4.09c2.88,2.41,5.87,4.89,9.52,6.27a40.81,40.81,0,0,0,16.19,2.61,39.6,39.6,0,0,0,4.38-.42,40.65,40.65,0,0,0,28.39-18.66Z"/><path class="cls-4" d="M154.29,217.66h-4.8v-1h10.75v1h-4.83V231h-1.12Z"/><path class="cls-4" d="M165.28,226,163.46,231h-1.12l5.25-14.31h1.31L174.38,231h-1.2L171.31,226Zm5.67-1c-1.6-4.25-2.42-6.3-2.7-7.26h0c-.35,1.09-1.27,3.62-2.56,7.26Z"/><path class="cls-4" d="M181.08,216.64V231H180V216.64Z"/><path class="cls-4" d="M188.36,216.64h5.11c2.61,0,4.41,1.45,4.41,4s-1.78,4.09-4.56,4.09h-3.84V231h-1.12Zm1.12,7.05h3.94c2.31,0,3.28-1.22,3.28-3a2.87,2.87,0,0,0-3.19-3h-4Z"/><path class="cls-4" d="M212.25,223.92H205v6h8l-.16,1h-8.93V216.64h8.77v1H205v5.24h7.3Z"/><path class="cls-4" d="M219.93,216.64V231h-1.11V216.64Z"/><path class="cls-4" d="M244.87,231.16l-4-14.31h1.14c1,3.43,3.13,11.34,3.46,13h0c.26-1.33,2.61-9.24,3.62-13h1.22c.94,3.49,3.23,11.9,3.46,13h0c.45-2,2.84-9.59,3.82-13h1.13l-4.38,14.31h-1.27c-.94-3.38-3.17-11.66-3.41-12.88h0c-.37,1.86-2.58,9.32-3.6,12.88Z"/><path class="cls-4" d="M264.7,226.21l-1.82,4.95h-1.13L267,216.85h1.3l5.48,14.31h-1.2l-1.86-4.95Zm5.66-1c-1.6-4.25-2.41-6.3-2.7-7.26h0c-.35,1.08-1.27,3.62-2.56,7.26Z"/><path class="cls-4" d="M279.39,216.85h1.1v13.29h7.69l-.21,1h-8.58Z"/><path class="cls-4" d="M293.45,216.85h1.1v7.44c1.15-1.11,5.24-4.95,7.79-7.44h1.47l-6.42,6.09,6.79,8.22h-1.37l-6.21-7.5-2.05,1.79v5.71h-1.1Z"/><path class="cls-4" d="M310.39,216.85v14.31h-1.11V216.85Z"/><path class="cls-4" d="M317.66,231.16V216.85h1.64c2.23,3.43,7.46,11.43,8.36,13h0c-.12-2.07-.1-4.17-.1-6.5v-6.48h1.12v14.31h-1.51c-2.13-3.31-7.44-11.63-8.46-13.21h0c.1,1.88.08,4,.08,6.56v6.65Z"/><path class="cls-4" d="M346.81,231.16h-.92a10.63,10.63,0,0,1-.15-2.29c-.51,1-1.63,2.45-4.62,2.45-4.1,0-6.21-3.13-6.21-7.2,0-4.27,2.25-7.48,6.44-7.48,3.09,0,5.13,1.62,5.58,4.26h-1.1a4.26,4.26,0,0,0-4.52-3.23c-3.58,0-5.21,2.78-5.21,6.39,0,3.27,1.57,6.24,5.07,6.24s4.57-2.33,4.57-5.5v-.16h-4.62v-1h5.69Z"/><path class="cls-4" d="M161.08,83.36H173q-1.28,23.82-28.06,38.27,19.13,1.28,40.81-6-4.68-10.2-5.1-27.2h.85q5.52,22.95,23.81,31.46a12.91,12.91,0,0,0-1.7,12.75c0,.85-.15,1.28-.43,1.28,0,.28-.28.14-.85-.43a56.78,56.78,0,0,1-15.73-16.15q-17.85,10.2-50.17,14.45a25.1,25.1,0,0,0-1.7-11.05,10.55,10.55,0,0,0,4.68.85Q159.8,109.74,161.08,83.36Zm-7.65,104.17H144.5V136.08h8.93v5.53h32.31v-5.53h8.93v52.3h-8.93v-7.23H153.43Zm32.31-11.06V146.29H153.43v30.18Z"/><path class="cls-4" d="M311.85,83.87V76.11h4.66v7.76h5.18V76.11h4.65v7.76H331v2.59h-4.66v9.83H330v2.59H306.16V96.29h5.69V86.46h-5.17V83.87Zm8.8,55.11-2.59.52-.25-.78c4.14-1.2,5.95-2.67,5.43-4.39V107.16H315v5.69h5.69v2.59H315v6.21h6.21v2.58H315V139.5H310.3v-38H315v3.11h8.28v-3.11h4.66v32.35q.25,4.14-5.95,5.95C322,138.89,321.51,138.63,320.65,139Zm1-52.52h-5.18v9.83h5.18Zm11.9-8.8h5.69q-1,6-2.07,10.87h12.94v2.58H346q0,10.1-.26,14a47.85,47.85,0,0,1-.52,7.76,35.43,35.43,0,0,1-3.36,11.9q4.9,6.74,9.83,7a6.65,6.65,0,0,0-2.07,7v.78h-.77a23,23,0,0,1-10.35-10.35q-5.44,6.21-10.1,10.87h-3.62a99.69,99.69,0,0,0,11.9-14Q332.82,116,333.07,102c-1.55,3.28-2.84,5.27-3.88,6h-.78Q332.82,99.14,333.59,77.66Zm7.76,13.45h-4.66a58.75,58.75,0,0,1-3.1,9.32q1.8,13.2,5.43,20.44Q341.62,111.81,341.35,91.11Z"/><path class="cls-4" d="M326.55,169V147.33h5v7H346.2v3H331.58V169h18.15v3H306.89v-3h7.56V150.86h5V169Zm-16.63,27.21h-2q6.81-7.82,6.55-20.66H320q0,8.56-8.56,18.89C310.75,195.29,310.25,195.87,309.92,196.21Zm16.63-.51V173.53h5V195.2q7.56-7.56,7.56-19.65h6.55q-.49,16.88-27,31c-2.18,1.17-4.2,2.35-6,3.53h-2.27q13.86-8.07,20.66-14.37Z"/><path class="cls-4" d="M239.8,111.73V83.3h8.62v103H239.8V160q-8.19,15.51-20.68,21.11c.29-5.46-.58-9.91-2.58-13.35q16.36.87,23.26-12.07V116H220v-4.31Zm21.54,64.62v-93H270v43.08l16.37-26.71,3.88,3L270,132.84V174.2c0,1.43,1.14,2.29,3.45,2.58h6.89a3.37,3.37,0,0,0,3.44-2.58L288.05,154h2.16l-1.3,15.51h2.59v8.19q-.87,7.32-7.32,7.75H269.53Q261.34,184.53,261.34,176.35Z"/></g></g></svg>